<?xml version="1.0" standalone="no"?>
<!DOCTYPE svg PUBLIC "-//W3C//DTD SVG 20010904//EN"
 "http://www.w3.org/TR/2001/REC-SVG-20010904/DTD/svg10.dtd">
<svg version="1.0" xmlns="http://www.w3.org/2000/svg"
 width="512.000000pt" height="511.000000pt" viewBox="0 0 512.000000 511.000000"
 preserveAspectRatio="xMidYMid meet">

<g transform="translate(0.000000,511.000000) scale(0.100000,-0.100000)"
fill="#000000" stroke="none">
<path d="M2681 3823 c7 -10 37 -46 66 -80 58 -67 133 -188 133 -214 0 -10 -11
-20 -25 -23 -37 -9 -31 -21 20 -41 43 -16 65 -39 65 -66 0 -8 -6 -7 -18 4 -9
9 -52 32 -94 52 -63 30 -80 35 -97 25 -24 -12 -27 -44 -6 -80 8 -14 14 -28 15
-32 0 -5 -423 -8 -939 -8 l-940 0 -82 -26 c-70 -22 -90 -34 -133 -77 -62 -62
-94 -145 -105 -277 -9 -98 -5 -779 5 -825 10 -47 49 -117 83 -149 17 -17 31
-37 31 -47 0 -29 49 -150 97 -239 158 -292 403 -560 658 -722 176 -111 385
-197 565 -232 47 -9 95 -19 108 -22 20 -4 22 -2 13 14 -5 10 -21 90 -36 177
-24 141 -26 178 -21 310 3 83 12 183 21 223 8 40 17 91 18 113 1 21 5 39 8 39
6 0 34 100 33 118 -1 6 3 12 8 12 6 0 8 9 5 20 -3 11 -1 18 4 14 5 -3 9 0 9 6
0 6 19 44 42 83 23 40 41 75 40 80 -1 4 374 7 833 7 757 0 838 -2 861 -16 30
-20 98 -15 164 14 53 22 89 70 123 158 22 58 22 68 22 499 0 437 0 440 -23
497 -42 103 -114 174 -230 224 -2 1 11 15 28 32 40 41 39 77 -6 166 -45 88
-53 99 -112 160 -58 60 -112 97 -177 122 -46 17 -91 19 -549 22 -480 3 -499 2
-485 -15z m1025 -258 c8 -32 -7 -50 -64 -75 -58 -26 -225 -78 -280 -88 l-42
-7 -34 -97 c-36 -107 -59 -148 -81 -148 -24 0 -26 15 -14 115 6 53 10 97 8 99
-2 2 -47 -7 -99 -20 -111 -27 -210 -40 -210 -28 1 16 73 56 121 67 l46 11 -69
80 c-43 50 -65 83 -59 89 6 6 20 2 38 -11 15 -11 74 -43 130 -71 79 -39 107
-49 120 -42 29 16 436 148 460 150 16 1 24 -6 29 -24z m-2624 -805 c3 -325 7
-348 46 -324 15 10 17 41 20 323 l2 311 135 0 135 0 0 -309 c0 -249 3 -311 14
-320 18 -15 43 -5 50 22 3 12 6 154 6 315 l0 292 130 0 130 0 0 -346 c0 -245
-4 -359 -12 -388 -17 -56 -100 -141 -153 -155 -60 -16 -145 -13 -190 8 -22 10
-56 35 -75 57 l-35 39 -35 -39 c-47 -52 -101 -76 -175 -76 -87 0 -134 16 -181
64 -70 69 -74 96 -74 493 l0 343 129 0 130 0 3 -310z m1068 33 c0 -162 4 -294
11 -315 12 -46 48 -61 79 -33 19 17 20 33 20 322 l0 303 136 0 135 0 -3 -332
-3 -333 -26 -55 c-54 -113 -142 -170 -275 -178 -151 -8 -253 45 -305 161 -24
51 -24 59 -27 395 l-3 342 130 0 131 0 0 -277z m1120 152 l0 -125 -100 0 -100
0 0 -315 0 -315 -130 0 -130 0 0 315 0 315 -100 0 -100 0 0 125 0 125 330 0
330 0 0 -125z m670 0 l0 -125 -100 0 -100 0 0 -315 0 -315 -130 0 -130 0 0
315 0 315 -100 0 -100 0 0 125 0 125 330 0 330 0 0 -125z"/>
</g>
</svg>
