<svg width="58" height="61" viewBox="0 0 58 61" fill="none" xmlns="http://www.w3.org/2000/svg">
<rect x="2" y="2.62988" width="54" height="56" rx="27" fill="white"/>
<g clip-path="url(#clip0_16_218)">
<path d="M19.6771 26.4613C20.4183 25.7031 21.4502 25.6436 22.3563 26.4613L28.9999 32.8312L35.6435 26.4613C36.5496 25.6436 37.5832 25.7031 38.3193 26.4613C39.0605 27.2178 39.0129 28.4962 38.3193 29.2068C37.6291 29.9174 30.3378 36.8602 30.3378 36.8602C29.9689 37.2393 29.4844 37.4297 28.9999 37.4297C28.5154 37.4297 28.0309 37.2393 27.6586 36.8602C27.6586 36.8602 20.3707 29.9174 19.6771 29.2068C18.9835 28.4962 18.9359 27.2178 19.6771 26.4613Z" fill="#613EEA"/>
</g>
<rect x="2" y="2.62988" width="54" height="56" rx="27" stroke="#613EEA" stroke-width="4"/>
<defs>
<clipPath id="clip0_16_218">
<rect width="34" height="36" fill="white" transform="translate(12 12.6299)"/>
</clipPath>
</defs>
</svg>
