<svg width="58" height="61" viewBox="0 0 58 61" fill="none" xmlns="http://www.w3.org/2000/svg">
<rect x="2" y="2.33984" width="54" height="56" rx="27" fill="white"/>
<g clip-path="url(#clip0_172_637)">
<path d="M19.6774 26.1715C20.4186 25.4133 21.4505 25.3538 22.3566 26.1715L29.0002 32.5414L35.6438 26.1715C36.5499 25.3538 37.5835 25.4133 38.3196 26.1715C39.0608 26.928 39.0132 28.2064 38.3196 28.917C37.6294 29.6276 30.3381 36.5704 30.3381 36.5704C29.9692 36.9495 29.4847 37.1399 29.0002 37.1399C28.5157 37.1399 28.0312 36.9495 27.6589 36.5704C27.6589 36.5704 20.371 29.6276 19.6774 28.917C18.9838 28.2064 18.9362 26.928 19.6774 26.1715Z" fill="#613EEA"/>
</g>
<rect x="2" y="2.33984" width="54" height="56" rx="27" stroke="#613EEA" stroke-width="4"/>
<defs>
<clipPath id="clip0_172_637">
<rect width="34" height="36" fill="white" transform="translate(12 12.3398)"/>
</clipPath>
</defs>
</svg>
