<svg width="58" height="61" viewBox="0 0 58 61" fill="none" xmlns="http://www.w3.org/2000/svg">
<rect x="2" y="2.62988" width="54" height="56" rx="27" fill="white"/>
<g clip-path="url(#clip0_1_258)">
<path d="M19.6772 26.4613C20.4184 25.7031 21.4503 25.6436 22.3564 26.4613L29 32.8312L35.6436 26.4613C36.5497 25.6436 37.5833 25.7031 38.3194 26.4613C39.0606 27.2178 39.013 28.4962 38.3194 29.2068C37.6292 29.9174 30.3379 36.8602 30.3379 36.8602C29.969 37.2393 29.4845 37.4297 29 37.4297C28.5155 37.4297 28.031 37.2393 27.6587 36.8602C27.6587 36.8602 20.3708 29.9174 19.6772 29.2068C18.9836 28.4962 18.936 27.2178 19.6772 26.4613Z" fill="#613EEA"/>
</g>
<rect x="2" y="2.62988" width="54" height="56" rx="27" stroke="#613EEA" stroke-width="4"/>
<defs>
<clipPath id="clip0_1_258">
<rect width="34" height="36" fill="white" transform="translate(12 12.6299)"/>
</clipPath>
</defs>
</svg>
