<svg width="58" height="61" viewBox="0 0 58 61" fill="none" xmlns="http://www.w3.org/2000/svg">
<rect x="2" y="2.33984" width="54" height="56" rx="27" fill="white"/>
<g clip-path="url(#clip0_16_73)">
<path d="M19.6771 26.1715C20.4183 25.4133 21.4502 25.3538 22.3563 26.1715L28.9999 32.5414L35.6435 26.1715C36.5496 25.3538 37.5832 25.4133 38.3193 26.1715C39.0605 26.928 39.0129 28.2064 38.3193 28.917C37.6291 29.6276 30.3378 36.5704 30.3378 36.5704C29.9689 36.9495 29.4844 37.1399 28.9999 37.1399C28.5154 37.1399 28.0309 36.9495 27.6586 36.5704C27.6586 36.5704 20.3707 29.6276 19.6771 28.917C18.9835 28.2064 18.9359 26.928 19.6771 26.1715Z" fill="#613EEA"/>
</g>
<rect x="2" y="2.33984" width="54" height="56" rx="27" stroke="#613EEA" stroke-width="4"/>
<defs>
<clipPath id="clip0_16_73">
<rect width="34" height="36" fill="white" transform="translate(12 12.3398)"/>
</clipPath>
</defs>
</svg>
