<svg width="58" height="61" viewBox="0 0 58 61" fill="none" xmlns="http://www.w3.org/2000/svg">
<rect x="2" y="2.34033" width="54" height="56" rx="27" fill="white"/>
<g clip-path="url(#clip0_151_177)">
<path d="M19.6772 26.172C20.4184 25.4138 21.4503 25.3543 22.3564 26.172L29 32.5419L35.6436 26.172C36.5497 25.3543 37.5833 25.4138 38.3194 26.172C39.0606 26.9285 39.013 28.2069 38.3194 28.9175C37.6292 29.6281 30.3379 36.5709 30.3379 36.5709C29.969 36.95 29.4845 37.1404 29 37.1404C28.5155 37.1404 28.031 36.95 27.6587 36.5709C27.6587 36.5709 20.3708 29.6281 19.6772 28.9175C18.9836 28.2069 18.936 26.9285 19.6772 26.172Z" fill="#613EEA"/>
</g>
<rect x="2" y="2.34033" width="54" height="56" rx="27" stroke="#613EEA" stroke-width="4"/>
<defs>
<clipPath id="clip0_151_177">
<rect width="34" height="36" fill="white" transform="translate(12 12.3403)"/>
</clipPath>
</defs>
</svg>
