<svg width="58" height="61" viewBox="0 0 58 61" fill="none" xmlns="http://www.w3.org/2000/svg">
<rect x="2" y="2.62988" width="54" height="56" rx="27" fill="white"/>
<g clip-path="url(#clip0_172_782)">
<path d="M19.6774 26.4613C20.4186 25.7031 21.4505 25.6436 22.3566 26.4613L29.0002 32.8312L35.6438 26.4613C36.5499 25.6436 37.5835 25.7031 38.3196 26.4613C39.0608 27.2178 39.0132 28.4962 38.3196 29.2068C37.6294 29.9174 30.3381 36.8602 30.3381 36.8602C29.9692 37.2393 29.4847 37.4297 29.0002 37.4297C28.5157 37.4297 28.0312 37.2393 27.6589 36.8602C27.6589 36.8602 20.371 29.9174 19.6774 29.2068C18.9838 28.4962 18.9362 27.2178 19.6774 26.4613Z" fill="#613EEA"/>
</g>
<rect x="2" y="2.62988" width="54" height="56" rx="27" stroke="#613EEA" stroke-width="4"/>
<defs>
<clipPath id="clip0_172_782">
<rect width="34" height="36" fill="white" transform="translate(12 12.6299)"/>
</clipPath>
</defs>
</svg>
