<svg width="58" height="61" viewBox="0 0 58 61" fill="none" xmlns="http://www.w3.org/2000/svg">
<rect x="2" y="2.63037" width="54" height="56" rx="27" fill="white"/>
<g clip-path="url(#clip0_151_322)">
<path d="M19.6772 26.4618C20.4184 25.7036 21.4503 25.6441 22.3564 26.4618L29 32.8317L35.6436 26.4618C36.5497 25.6441 37.5833 25.7036 38.3194 26.4618C39.0606 27.2183 39.013 28.4967 38.3194 29.2073C37.6292 29.9179 30.3379 36.8607 30.3379 36.8607C29.969 37.2398 29.4845 37.4302 29 37.4302C28.5155 37.4302 28.031 37.2398 27.6587 36.8607C27.6587 36.8607 20.3708 29.9179 19.6772 29.2073C18.9836 28.4967 18.936 27.2183 19.6772 26.4618Z" fill="#613EEA"/>
</g>
<rect x="2" y="2.63037" width="54" height="56" rx="27" stroke="#613EEA" stroke-width="4"/>
<defs>
<clipPath id="clip0_151_322">
<rect width="34" height="36" fill="white" transform="translate(12 12.6304)"/>
</clipPath>
</defs>
</svg>
