<svg width="58" height="61" viewBox="0 0 58 61" fill="none" xmlns="http://www.w3.org/2000/svg">
<rect x="2" y="2.33984" width="54" height="56" rx="27" fill="white"/>
<g clip-path="url(#clip0_1_113)">
<path d="M19.6772 26.1715C20.4184 25.4133 21.4503 25.3538 22.3564 26.1715L29 32.5414L35.6436 26.1715C36.5497 25.3538 37.5833 25.4133 38.3194 26.1715C39.0606 26.928 39.013 28.2064 38.3194 28.917C37.6292 29.6276 30.3379 36.5704 30.3379 36.5704C29.969 36.9495 29.4845 37.1399 29 37.1399C28.5155 37.1399 28.031 36.9495 27.6587 36.5704C27.6587 36.5704 20.3708 29.6276 19.6772 28.917C18.9836 28.2064 18.936 26.928 19.6772 26.1715Z" fill="#613EEA"/>
</g>
<rect x="2" y="2.33984" width="54" height="56" rx="27" stroke="#613EEA" stroke-width="4"/>
<defs>
<clipPath id="clip0_1_113">
<rect width="34" height="36" fill="white" transform="translate(12 12.3398)"/>
</clipPath>
</defs>
</svg>
