<svg width="196" height="37" viewBox="0 0 196 37" fill="none" xmlns="http://www.w3.org/2000/svg">
<path d="M0.00732422 36.8164H36.0335V0.830078H0.00732422V36.8164Z" fill="#00B67A"/>
<path d="M30.7185 16.1408L10.2849 30.9681L13.2665 21.8043L5.46143 16.1408H15.1089L18.09 6.97632L21.071 16.1408H30.7185ZM18.0907 25.3052L23.6712 24.1327L25.8946 30.9681L18.0907 25.3052Z" fill="white"/>
<path d="M39.8184 36.8164H75.8445V0.830078H39.8184V36.8164Z" fill="#00B67A"/>
<path d="M39.8184 36.8164H57.8314V0.830078H39.8184V36.8164Z" fill="#00B67A"/>
<path d="M58.2627 25.1652L63.0479 24.1322L65.2612 31.1229L57.7568 25.5282L49.9597 31.1229L52.986 21.9257L45.0635 16.2417H54.8559L57.8809 7.04395L60.9072 16.2417H70.699L58.2627 25.1652Z" fill="white"/>
<path d="M79.6577 36.8164H115.684V0.830078H79.6577V36.8164Z" fill="#00B67A"/>
<path d="M79.6577 36.8164H97.6708V0.830078H79.6577V36.8164Z" fill="#00B67A"/>
<path d="M110.37 16.1408L89.9362 30.9681L92.9179 21.8043L85.1128 16.1408H94.7603L97.7413 6.97632L100.722 16.1408L110.37 16.1408ZM97.7421 25.3052L103.323 24.1327L105.546 30.9681L97.7421 25.3052Z" fill="white"/>
<path d="M119.497 36.8164H155.523V0.830078H119.497V36.8164Z" fill="#00B67A"/>
<path d="M119.497 36.8164H137.51V0.830078H119.497V36.8164Z" fill="#00B67A"/>
<path d="M150.207 16.1408L129.774 30.9681L132.755 21.8043L124.95 16.1408H134.598L137.579 6.97632L140.56 16.1408L150.207 16.1408ZM137.579 25.3052L143.16 24.1327L145.383 30.9681L137.579 25.3052Z" fill="white"/>
<path d="M159.309 36.8164H195.335V0.830078H159.309V36.8164Z" fill="#DCDCE6"/>
<path d="M159.309 36.8164H177.322V0.830078H159.309V36.8164Z" fill="#00B67A"/>
<path d="M190.019 16.1408L169.586 30.9681L172.567 21.8043L164.762 16.1408H174.409L177.39 6.97632L180.371 16.1408H190.019ZM177.391 25.3052L182.971 24.1327L185.195 30.9681L177.391 25.3052Z" fill="white"/>
</svg>
