<svg width="115" height="29" viewBox="0 0 115 29" fill="none" xmlns="http://www.w3.org/2000/svg">
<path d="M30.1991 10.6587H41.8248V12.8155H37.2536V24.9403H34.7399V12.8155H30.189V10.6587H30.1991ZM41.3281 14.5995H43.4769V16.5951H43.5174C43.5884 16.3129 43.7201 16.0407 43.9127 15.7787C44.1053 15.5166 44.3384 15.2647 44.6121 15.053C44.8857 14.8313 45.1898 14.6599 45.5243 14.5188C45.8588 14.3878 46.2034 14.3173 46.548 14.3173C46.8115 14.3173 47.0041 14.3273 47.1055 14.3374C47.2068 14.3475 47.3082 14.3677 47.4197 14.3777V16.5749C47.2575 16.5447 47.0953 16.5245 46.923 16.5044C46.7507 16.4842 46.5885 16.4741 46.4264 16.4741C46.0412 16.4741 45.6763 16.5547 45.3317 16.7059C44.9871 16.8571 44.6932 17.0889 44.4398 17.3812C44.1864 17.6836 43.9837 18.0464 43.8316 18.4899C43.6796 18.9333 43.6086 19.4373 43.6086 20.0118V24.9302H41.318V14.5995L41.3281 14.5995ZM57.9507 24.9403H55.7005V23.499H55.66C55.3762 24.0231 54.9606 24.4363 54.4032 24.7488C53.8457 25.0612 53.2781 25.2225 52.7004 25.2225C51.3321 25.2225 50.3388 24.8899 49.7306 24.2146C49.1225 23.5393 48.8184 22.5214 48.8184 21.1607V14.5995H51.1091V20.939C51.1091 21.8461 51.2814 22.4911 51.6361 22.864C51.9807 23.2369 52.4774 23.4284 53.1058 23.4284C53.5923 23.4284 53.9876 23.3579 54.312 23.2067C54.6363 23.0555 54.8998 22.864 55.0924 22.6121C55.2951 22.3702 55.437 22.0678 55.5282 21.7251C55.6195 21.3825 55.66 21.0095 55.66 20.6064V14.6096H57.9507V24.9403ZM61.8529 21.6244C61.9239 22.2895 62.1773 22.7532 62.6131 23.0253C63.0591 23.2873 63.5861 23.4284 64.2044 23.4284C64.4173 23.4284 64.6605 23.4083 64.9342 23.378C65.2078 23.3478 65.4714 23.2773 65.7045 23.1866C65.9478 23.0958 66.1403 22.9547 66.3025 22.7733C66.4545 22.5919 66.5255 22.3601 66.5154 22.0678C66.5052 21.7755 66.3937 21.5336 66.191 21.3522C65.9883 21.1607 65.7349 21.0196 65.4207 20.8987C65.1065 20.7878 64.7517 20.687 64.3463 20.6064C63.9409 20.5258 63.5354 20.4351 63.1199 20.3444C62.6942 20.2536 62.2786 20.1327 61.8833 20.0017C61.488 19.8707 61.1333 19.6892 60.8191 19.4574C60.5049 19.2357 60.2515 18.9434 60.069 18.5907C59.8765 18.2379 59.7852 17.8045 59.7852 17.2804C59.7852 16.716 59.9271 16.2524 60.2008 15.8694C60.4745 15.4864 60.8292 15.184 61.2448 14.9522C61.6705 14.7204 62.1367 14.5592 62.6536 14.4584C63.1706 14.3677 63.6672 14.3173 64.1335 14.3173C64.6707 14.3173 65.1876 14.3777 65.6741 14.4886C66.1606 14.5995 66.6066 14.7809 67.0019 15.0429C67.3972 15.2949 67.7215 15.6275 67.985 16.0307C68.2486 16.4338 68.4107 16.9277 68.4817 17.5021H66.0896C65.9782 16.9579 65.7349 16.585 65.3396 16.4036C64.9443 16.2121 64.4882 16.1214 63.9814 16.1214C63.8193 16.1214 63.6267 16.1314 63.4037 16.1617C63.1807 16.1919 62.978 16.2423 62.7753 16.3129C62.5827 16.3834 62.4205 16.4943 62.2786 16.6354C62.1469 16.7765 62.0759 16.9579 62.0759 17.1897C62.0759 17.4719 62.1773 17.6936 62.3698 17.865C62.5624 18.0363 62.8158 18.1774 63.13 18.2984C63.4442 18.4092 63.799 18.51 64.2044 18.5907C64.6098 18.6713 65.0254 18.762 65.4511 18.8527C65.8667 18.9434 66.2721 19.0644 66.6775 19.1954C67.0829 19.3264 67.4377 19.5078 67.7519 19.7396C68.0661 19.9714 68.3195 20.2536 68.5121 20.5963C68.7047 20.939 68.806 21.3724 68.806 21.8763C68.806 22.4911 68.6641 23.0051 68.3803 23.4385C68.0965 23.8618 67.7316 24.2146 67.2857 24.4766C66.8397 24.7387 66.3329 24.9403 65.7856 25.0612C65.2383 25.1821 64.6909 25.2426 64.1537 25.2426C63.4949 25.2426 62.8868 25.1721 62.3293 25.0209C61.7718 24.8697 61.2853 24.648 60.8799 24.3557C60.4745 24.0533 60.1501 23.6804 59.917 23.2369C59.6839 22.7935 59.5623 22.2593 59.542 21.6445H61.8529V21.6244ZM69.4142 14.5995H71.1474V11.4952H73.438V14.5995H75.5057V16.3028H73.438V21.8259C73.438 22.0678 73.4482 22.2694 73.4684 22.4508C73.4887 22.6221 73.5394 22.7733 73.6103 22.8943C73.6813 23.0152 73.7928 23.1059 73.9448 23.1664C74.0969 23.2269 74.2894 23.2571 74.553 23.2571C74.7151 23.2571 74.8773 23.2571 75.0395 23.247C75.2017 23.2369 75.3638 23.2168 75.526 23.1765V24.9403C75.2726 24.9705 75.0192 24.9906 74.7861 25.0209C74.5428 25.0511 74.2996 25.0612 74.0462 25.0612C73.438 25.0612 72.9515 25.0007 72.5866 24.8899C72.2218 24.779 71.9278 24.6077 71.7251 24.3859C71.5123 24.1642 71.3805 23.8921 71.2994 23.5595C71.2285 23.2269 71.1778 22.8439 71.1676 22.4206V16.3229H69.4344V14.5995H69.4142ZM77.1274 14.5995H79.2965V16.0004H79.337C79.6614 15.3957 80.1073 14.9724 80.6851 14.7103C81.2628 14.4483 81.8811 14.3173 82.5602 14.3173C83.3812 14.3173 84.0907 14.4584 84.6988 14.7507C85.307 15.0329 85.8137 15.4259 86.2192 15.9299C86.6246 16.4338 86.9185 17.0184 87.1213 17.6836C87.324 18.3488 87.4253 19.0644 87.4253 19.8203C87.4253 20.5157 87.3341 21.191 87.1517 21.836C86.9692 22.4911 86.6955 23.0656 86.3307 23.5695C85.9658 24.0735 85.4995 24.4666 84.9319 24.7689C84.3643 25.0713 83.7055 25.2225 82.9352 25.2225C82.6007 25.2225 82.2662 25.1922 81.9318 25.1317C81.5973 25.0713 81.2729 24.9705 80.9689 24.8395C80.6648 24.7084 80.3709 24.5371 80.1175 24.3254C79.8539 24.1138 79.6411 23.8719 79.4587 23.5998H79.4181V28.7601H77.1274V14.5995ZM85.1347 19.7799C85.1347 19.3163 85.0738 18.8628 84.9522 18.4193C84.8306 17.9759 84.6481 17.5929 84.4049 17.2502C84.1616 16.9075 83.8576 16.6354 83.5028 16.4338C83.1379 16.2322 82.7224 16.1214 82.2561 16.1214C81.2932 16.1214 80.5634 16.454 80.0769 17.1192C79.5904 17.7844 79.3472 18.6713 79.3472 19.7799C79.3472 20.304 79.408 20.7878 79.5397 21.2313C79.6715 21.6747 79.8539 22.0577 80.1175 22.3803C80.3709 22.7028 80.6749 22.9547 81.0297 23.1362C81.3844 23.3277 81.8 23.4184 82.2662 23.4184C82.7933 23.4184 83.2291 23.3075 83.594 23.0958C83.9589 22.8842 84.2528 22.602 84.486 22.2694C84.7191 21.9267 84.8914 21.5437 84.9928 21.1103C85.084 20.6769 85.1347 20.2335 85.1347 19.7799ZM89.1788 10.6587H91.4695V12.8155H89.1788V10.6587ZM89.1788 14.5995H91.4695V24.9403H89.1788V14.5995ZM93.5169 10.6587H95.8076V24.9403H93.5169V10.6587ZM102.832 25.2225C102 25.2225 101.261 25.0814 100.612 24.8092C99.9632 24.5371 99.4159 24.1541 98.9598 23.6804C98.5138 23.1966 98.1692 22.6221 97.9361 21.9569C97.7029 21.2918 97.5813 20.556 97.5813 19.7598C97.5813 18.9736 97.7029 18.248 97.9361 17.5828C98.1692 16.9176 98.5138 16.3431 98.9598 15.8593C99.4057 15.3755 99.9632 15.0026 100.612 14.7305C101.261 14.4584 102 14.3173 102.832 14.3173C103.663 14.3173 104.403 14.4584 105.051 14.7305C105.7 15.0026 106.247 15.3856 106.703 15.8593C107.149 16.3431 107.494 16.9176 107.727 17.5828C107.96 18.248 108.082 18.9736 108.082 19.7598C108.082 20.556 107.96 21.2918 107.727 21.9569C107.494 22.6221 107.149 23.1966 106.703 23.6804C106.257 24.1642 105.7 24.5371 105.051 24.8092C104.403 25.0814 103.663 25.2225 102.832 25.2225ZM102.832 23.4184C103.338 23.4184 103.784 23.3075 104.159 23.0958C104.534 22.8842 104.838 22.602 105.082 22.2593C105.325 21.9166 105.497 21.5236 105.619 21.0902C105.73 20.6568 105.791 20.2133 105.791 19.7598C105.791 19.3163 105.73 18.8829 105.619 18.4395C105.507 17.996 105.325 17.613 105.082 17.2703C104.838 16.9277 104.534 16.6555 104.159 16.4439C103.784 16.2322 103.338 16.1214 102.832 16.1214C102.325 16.1214 101.879 16.2322 101.504 16.4439C101.129 16.6555 100.825 16.9377 100.581 17.2703C100.338 17.613 100.166 17.996 100.044 18.4395C99.9328 18.8829 99.872 19.3163 99.872 19.7598C99.872 20.2133 99.9328 20.6568 100.044 21.0902C100.156 21.5236 100.338 21.9166 100.581 22.2593C100.825 22.602 101.129 22.8842 101.504 23.0958C101.879 23.3176 102.325 23.4184 102.832 23.4184ZM108.751 14.5995H110.484V11.4952H112.775V14.5995H114.842V16.3028H112.775V21.8259C112.775 22.0678 112.785 22.2694 112.805 22.4508C112.825 22.6221 112.876 22.7733 112.947 22.8943C113.018 23.0152 113.129 23.1059 113.282 23.1664C113.434 23.2269 113.626 23.2571 113.89 23.2571C114.052 23.2571 114.214 23.2571 114.376 23.247C114.538 23.2369 114.701 23.2168 114.863 23.1765V24.9403C114.609 24.9705 114.356 24.9906 114.123 25.0209C113.88 25.0511 113.636 25.0612 113.383 25.0612C112.775 25.0612 112.288 25.0007 111.923 24.8899C111.558 24.779 111.265 24.6077 111.062 24.3859C110.849 24.1642 110.717 23.8921 110.636 23.5595C110.565 23.2269 110.514 22.8439 110.504 22.4206V16.3229H108.771V14.5995L108.751 14.5995Z" fill="#191919"/>
<path d="M27.5236 10.6589H17.023L13.7795 0.72168L10.526 10.6589L0.0253906 10.6488L8.52925 16.7966L5.27569 26.7237L13.7795 20.586L22.2733 26.7237L19.0298 16.7966L27.5236 10.6589Z" fill="#00B67A"/>
<path d="M19.7594 19.0439L19.0296 16.7964L13.7793 20.586L19.7594 19.0439Z" fill="#005128"/>
</svg>
