<svg width="115" height="29" viewBox="0 0 115 29" fill="none" xmlns="http://www.w3.org/2000/svg">
<path d="M30.1993 10.6587H41.825V12.8155H37.2538V24.9403H34.7401V12.8155H30.1892V10.6587H30.1993ZM41.3284 14.5995H43.4771V16.5951H43.5177C43.5886 16.3129 43.7204 16.0407 43.913 15.7787C44.1055 15.5166 44.3387 15.2647 44.6123 15.053C44.886 14.8313 45.1901 14.6599 45.5245 14.5188C45.859 14.3878 46.2036 14.3173 46.5482 14.3173C46.8118 14.3173 47.0044 14.3273 47.1057 14.3374C47.2071 14.3475 47.3084 14.3677 47.4199 14.3777V16.5749C47.2577 16.5447 47.0956 16.5245 46.9233 16.5044C46.751 16.4842 46.5888 16.4741 46.4266 16.4741C46.0415 16.4741 45.6766 16.5547 45.332 16.7059C44.9873 16.8571 44.6934 17.0889 44.44 17.3812C44.1866 17.6836 43.9839 18.0464 43.8319 18.4899C43.6798 18.9333 43.6089 19.4373 43.6089 20.0118V24.9302H41.3182V14.5995L41.3284 14.5995ZM57.9509 24.9403H55.7008V23.499H55.6602C55.3764 24.0231 54.9609 24.4363 54.4034 24.7488C53.846 25.0612 53.2784 25.2225 52.7006 25.2225C51.3323 25.2225 50.339 24.8899 49.7309 24.2146C49.1227 23.5393 48.8186 22.5214 48.8186 21.1607V14.5995H51.1093V20.939C51.1093 21.8461 51.2816 22.4911 51.6364 22.864C51.981 23.2369 52.4776 23.4284 53.1061 23.4284C53.5926 23.4284 53.9879 23.3579 54.3122 23.2067C54.6365 23.0555 54.9001 22.864 55.0926 22.6121C55.2954 22.3702 55.4373 22.0678 55.5285 21.7251C55.6197 21.3825 55.6602 21.0095 55.6602 20.6064V14.6096H57.9509V24.9403ZM61.8532 21.6244C61.9241 22.2895 62.1775 22.7532 62.6133 23.0253C63.0593 23.2873 63.5864 23.4284 64.2047 23.4284C64.4175 23.4284 64.6608 23.4083 64.9344 23.378C65.2081 23.3478 65.4716 23.2773 65.7047 23.1866C65.948 23.0958 66.1406 22.9547 66.3027 22.7733C66.4548 22.5919 66.5257 22.3601 66.5156 22.0678C66.5055 21.7755 66.394 21.5336 66.1913 21.3522C65.9885 21.1607 65.7351 21.0196 65.4209 20.8987C65.1067 20.7878 64.752 20.687 64.3466 20.6064C63.9411 20.5258 63.5357 20.4351 63.1201 20.3444C62.6944 20.2536 62.2789 20.1327 61.8836 20.0017C61.4883 19.8707 61.1335 19.6892 60.8193 19.4574C60.5051 19.2357 60.2517 18.9434 60.0693 18.5907C59.8767 18.2379 59.7855 17.8045 59.7855 17.2804C59.7855 16.716 59.9274 16.2524 60.201 15.8694C60.4747 15.4864 60.8295 15.184 61.245 14.9522C61.6707 14.7204 62.137 14.5592 62.6539 14.4584C63.1708 14.3677 63.6675 14.3173 64.1337 14.3173C64.6709 14.3173 65.1878 14.3777 65.6743 14.4886C66.1608 14.5995 66.6068 14.7809 67.0021 15.0429C67.3974 15.2949 67.7217 15.6275 67.9853 16.0307C68.2488 16.4338 68.411 16.9277 68.4819 17.5021H66.0899C65.9784 16.9579 65.7351 16.585 65.3399 16.4036C64.9446 16.2121 64.4885 16.1214 63.9817 16.1214C63.8195 16.1214 63.6269 16.1314 63.4039 16.1617C63.1809 16.1919 62.9782 16.2423 62.7755 16.3129C62.5829 16.3834 62.4208 16.4943 62.2789 16.6354C62.1471 16.7765 62.0762 16.9579 62.0762 17.1897C62.0762 17.4719 62.1775 17.6936 62.3701 17.865C62.5627 18.0363 62.8161 18.1774 63.1303 18.2984C63.4445 18.4092 63.7992 18.51 64.2047 18.5907C64.6101 18.6713 65.0256 18.762 65.4513 18.8527C65.8669 18.9434 66.2723 19.0644 66.6778 19.1954C67.0832 19.3264 67.4379 19.5078 67.7522 19.7396C68.0664 19.9714 68.3198 20.2536 68.5123 20.5963C68.7049 20.939 68.8063 21.3724 68.8063 21.8763C68.8063 22.4911 68.6644 23.0051 68.3806 23.4385C68.0968 23.8618 67.7319 24.2146 67.2859 24.4766C66.8399 24.7387 66.3332 24.9403 65.7858 25.0612C65.2385 25.1821 64.6912 25.2426 64.154 25.2426C63.4952 25.2426 62.887 25.1721 62.3295 25.0209C61.7721 24.8697 61.2856 24.648 60.8801 24.3557C60.4747 24.0533 60.1504 23.6804 59.9172 23.2369C59.6841 22.7935 59.5625 22.2593 59.5422 21.6445H61.8532V21.6244ZM69.4144 14.5995H71.1476V11.4952H73.4383V14.5995H75.506V16.3028H73.4383V21.8259C73.4383 22.0678 73.4484 22.2694 73.4687 22.4508C73.489 22.6221 73.5396 22.7733 73.6106 22.8943C73.6815 23.0152 73.793 23.1059 73.9451 23.1664C74.0971 23.2269 74.2897 23.2571 74.5532 23.2571C74.7154 23.2571 74.8776 23.2571 75.0397 23.247C75.2019 23.2369 75.3641 23.2168 75.5262 23.1765V24.9403C75.2728 24.9705 75.0195 24.9906 74.7863 25.0209C74.5431 25.0511 74.2998 25.0612 74.0464 25.0612C73.4383 25.0612 72.9518 25.0007 72.5869 24.8899C72.222 24.779 71.9281 24.6077 71.7254 24.3859C71.5125 24.1642 71.3807 23.8921 71.2996 23.5595C71.2287 23.2269 71.178 22.8439 71.1679 22.4206V16.3229H69.4347V14.5995H69.4144ZM77.1277 14.5995H79.2967V16.0004H79.3373C79.6616 15.3957 80.1076 14.9724 80.6853 14.7103C81.2631 14.4483 81.8813 14.3173 82.5604 14.3173C83.3814 14.3173 84.0909 14.4584 84.6991 14.7507C85.3072 15.0329 85.814 15.4259 86.2194 15.9299C86.6248 16.4338 86.9188 17.0184 87.1215 17.6836C87.3242 18.3488 87.4256 19.0644 87.4256 19.8203C87.4256 20.5157 87.3343 21.191 87.1519 21.836C86.9695 22.4911 86.6958 23.0656 86.3309 23.5695C85.966 24.0735 85.4998 24.4666 84.9322 24.7689C84.3646 25.0713 83.7058 25.2225 82.9354 25.2225C82.601 25.2225 82.2665 25.1922 81.932 25.1317C81.5975 25.0713 81.2732 24.9705 80.9691 24.8395C80.665 24.7084 80.3711 24.5371 80.1177 24.3254C79.8542 24.1138 79.6413 23.8719 79.4589 23.5998H79.4184V28.7601H77.1277V14.5995ZM85.1349 19.7799C85.1349 19.3163 85.0741 18.8628 84.9524 18.4193C84.8308 17.9759 84.6484 17.5929 84.4051 17.2502C84.1619 16.9075 83.8578 16.6354 83.503 16.4338C83.1382 16.2322 82.7226 16.1214 82.2564 16.1214C81.2935 16.1214 80.5637 16.454 80.0772 17.1192C79.5907 17.7844 79.3474 18.6713 79.3474 19.7799C79.3474 20.304 79.4082 20.7878 79.54 21.2313C79.6717 21.6747 79.8542 22.0577 80.1177 22.3803C80.3711 22.7028 80.6752 22.9547 81.0299 23.1362C81.3847 23.3277 81.8002 23.4184 82.2665 23.4184C82.7935 23.4184 83.2294 23.3075 83.5943 23.0958C83.9592 22.8842 84.2531 22.602 84.4862 22.2694C84.7193 21.9267 84.8916 21.5437 84.993 21.1103C85.0842 20.6769 85.1349 20.2335 85.1349 19.7799ZM89.179 10.6587H91.4697V12.8155H89.179V10.6587ZM89.179 14.5995H91.4697V24.9403H89.179V14.5995ZM93.5171 10.6587H95.8078V24.9403H93.5171V10.6587ZM102.832 25.2225C102.001 25.2225 101.261 25.0814 100.612 24.8092C99.9634 24.5371 99.4161 24.1541 98.96 23.6804C98.514 23.1966 98.1694 22.6221 97.9363 21.9569C97.7032 21.2918 97.5815 20.556 97.5815 19.7598C97.5815 18.9736 97.7032 18.248 97.9363 17.5828C98.1694 16.9176 98.514 16.3431 98.96 15.8593C99.406 15.3755 99.9634 15.0026 100.612 14.7305C101.261 14.4584 102.001 14.3173 102.832 14.3173C103.663 14.3173 104.403 14.4584 105.052 14.7305C105.7 15.0026 106.248 15.3856 106.704 15.8593C107.15 16.3431 107.494 16.9176 107.727 17.5828C107.961 18.248 108.082 18.9736 108.082 19.7598C108.082 20.556 107.961 21.2918 107.727 21.9569C107.494 22.6221 107.15 23.1966 106.704 23.6804C106.258 24.1642 105.7 24.5371 105.052 24.8092C104.403 25.0814 103.663 25.2225 102.832 25.2225ZM102.832 23.4184C103.339 23.4184 103.785 23.3075 104.16 23.0958C104.535 22.8842 104.839 22.602 105.082 22.2593C105.325 21.9166 105.498 21.5236 105.619 21.0902C105.731 20.6568 105.791 20.2133 105.791 19.7598C105.791 19.3163 105.731 18.8829 105.619 18.4395C105.508 17.996 105.325 17.613 105.082 17.2703C104.839 16.9277 104.535 16.6555 104.16 16.4439C103.785 16.2322 103.339 16.1214 102.832 16.1214C102.325 16.1214 101.879 16.2322 101.504 16.4439C101.129 16.6555 100.825 16.9377 100.582 17.2703C100.338 17.613 100.166 17.996 100.045 18.4395C99.933 18.8829 99.8722 19.3163 99.8722 19.7598C99.8722 20.2133 99.933 20.6568 100.045 21.0902C100.156 21.5236 100.338 21.9166 100.582 22.2593C100.825 22.602 101.129 22.8842 101.504 23.0958C101.879 23.3176 102.325 23.4184 102.832 23.4184ZM108.751 14.5995H110.484V11.4952H112.775V14.5995H114.843V16.3028H112.775V21.8259C112.775 22.0678 112.785 22.2694 112.805 22.4508C112.826 22.6221 112.876 22.7733 112.947 22.8943C113.018 23.0152 113.13 23.1059 113.282 23.1664C113.434 23.2269 113.626 23.2571 113.89 23.2571C114.052 23.2571 114.214 23.2571 114.376 23.247C114.539 23.2369 114.701 23.2168 114.863 23.1765V24.9403C114.61 24.9705 114.356 24.9906 114.123 25.0209C113.88 25.0511 113.637 25.0612 113.383 25.0612C112.775 25.0612 112.288 25.0007 111.924 24.8899C111.559 24.779 111.265 24.6077 111.062 24.3859C110.849 24.1642 110.717 23.8921 110.636 23.5595C110.565 23.2269 110.515 22.8439 110.505 22.4206V16.3229H108.771V14.5995L108.751 14.5995Z" fill="#191919"/>
<path d="M27.5236 10.6589H17.023L13.7795 0.72168L10.526 10.6589L0.0253906 10.6488L8.52925 16.7966L5.27569 26.7237L13.7795 20.586L22.2733 26.7237L19.0298 16.7966L27.5236 10.6589Z" fill="#00B67A"/>
<path d="M19.7596 19.0439L19.0298 16.7964L13.7795 20.586L19.7596 19.0439Z" fill="#005128"/>
</svg>
