<svg width="196" height="37" viewBox="0 0 196 37" fill="none" xmlns="http://www.w3.org/2000/svg">
<path d="M0.00726318 36.8164H36.0334V0.830078H0.00726318V36.8164Z" fill="#00B67A"/>
<path d="M30.7186 16.1408L10.285 30.9681L13.2666 21.8043L5.46155 16.1408H15.109L18.0901 6.97632L21.0711 16.1408H30.7186ZM18.0908 25.3052L23.6713 24.1327L25.8947 30.9681L18.0908 25.3052Z" fill="white"/>
<path d="M39.8186 36.8164H75.8448V0.830078H39.8186V36.8164Z" fill="#00B67A"/>
<path d="M39.8186 36.8164H57.8317V0.830078H39.8186V36.8164Z" fill="#00B67A"/>
<path d="M58.2628 25.1652L63.0481 24.1322L65.2614 31.1229L57.757 25.5282L49.9599 31.1229L52.9862 21.9257L45.0637 16.2417H54.8561L57.8811 7.04395L60.9074 16.2417H70.6992L58.2628 25.1652Z" fill="white"/>
<path d="M79.6578 36.8164H115.684V0.830078H79.6578V36.8164Z" fill="#00B67A"/>
<path d="M79.6578 36.8164H97.6709V0.830078H79.6578V36.8164Z" fill="#00B67A"/>
<path d="M110.37 16.1408L89.9362 30.9681L92.9179 21.8043L85.1128 16.1408H94.7603L97.7413 6.97632L100.722 16.1408L110.37 16.1408ZM97.7421 25.3052L103.323 24.1327L105.546 30.9681L97.7421 25.3052Z" fill="white"/>
<path d="M119.496 36.8164H155.523V0.830078H119.496V36.8164Z" fill="#00B67A"/>
<path d="M119.496 36.8164H137.51V0.830078H119.496V36.8164Z" fill="#00B67A"/>
<path d="M150.207 16.1408L129.774 30.9681L132.755 21.8043L124.95 16.1408H134.597L137.578 6.97632L140.56 16.1408L150.207 16.1408ZM137.579 25.3052L143.16 24.1327L145.383 30.9681L137.579 25.3052Z" fill="white"/>
<path d="M159.308 36.8164H195.335V0.830078H159.308V36.8164Z" fill="#DCDCE6"/>
<path d="M159.308 36.8164H177.321V0.830078H159.308V36.8164Z" fill="#00B67A"/>
<path d="M190.019 16.1408L169.586 30.9681L172.567 21.8043L164.762 16.1408H174.409L177.39 6.97632L180.371 16.1408H190.019ZM177.391 25.3052L182.971 24.1327L185.195 30.9681L177.391 25.3052Z" fill="white"/>
</svg>
