<svg width="227" height="64" viewBox="0 0 227 64" fill="none" xmlns="http://www.w3.org/2000/svg">
<ellipse cx="54.5823" cy="5.25267" rx="5.70247" ry="5.25267" fill="#BBA367"/>
<path d="M130.052 26.7184V27.2184V44.4089C130.052 46.4427 130.02 48.299 129.955 49.9774C129.905 51.674 129.716 53.2076 129.383 54.5748C129.062 55.9546 128.545 57.1701 127.825 58.2128C127.09 59.2764 126.051 60.1474 124.728 60.8344L124.724 60.8366C123.4 61.5089 121.735 61.9982 119.743 62.3167C117.763 62.651 115.336 62.8158 112.469 62.8158H101.534C98.6666 62.8158 96.2319 62.6509 94.2358 62.3167C92.2596 61.9981 90.6025 61.5087 89.2789 60.8366L89.2748 60.8345C87.9532 60.1477 86.907 59.278 86.1568 58.2173L86.1536 58.2128C85.4339 57.1711 84.909 55.9567 84.5726 54.5776L84.5712 54.572C84.2545 53.2054 84.0733 51.6719 84.024 49.9746C83.9752 48.2975 83.9509 46.4422 83.9509 44.4089V27.2184V26.7184H84.4509H89.1165H89.6165V27.2184V44.4089C89.6165 46.5544 89.6327 48.4003 89.665 49.9473C89.7131 51.4644 89.8487 52.7299 90.0671 53.7501C90.2832 54.7595 90.6154 55.5347 91.0435 56.1013C91.4778 56.6549 92.1066 57.0979 92.9601 57.4151C93.8263 57.7371 94.9435 57.9621 96.3242 58.0792C97.7332 58.1824 99.4689 58.2344 101.534 58.2344H112.469C114.518 58.2344 116.246 58.1824 117.655 58.0792C119.052 57.962 120.168 57.7369 121.016 57.4162L121.019 57.4151C121.874 57.0974 122.503 56.6533 122.938 56.0983C123.38 55.5327 123.72 54.7588 123.936 53.7501L123.937 53.743C124.17 52.7273 124.306 51.4653 124.338 49.9496C124.338 49.9496 124.338 49.9495 124.338 49.9495L124.838 49.96C124.87 48.4081 124.887 46.5577 124.887 44.4089L130.052 26.7184ZM130.052 26.7184H129.552H124.862H124.362L124.362 27.2191L124.387 44.4089C124.387 44.4091 124.387 44.4094 124.387 44.4096L130.052 26.7184ZM37.6859 9.15367L23.6407 56.7011L7.88502 26.9841L7.7441 26.7184H7.44326H2H1.15968L1.56057 27.4569L20.2232 61.838L20.3651 62.0995H20.6626H26.8835H27.2584L27.3635 61.7396L41.6581 12.7673L55.9527 61.7396L56.0577 62.0995H56.4326H62.6535H62.9632L63.1012 61.8222L80.2085 27.4411L80.5682 26.7184H79.7609H74.3176H74.0029L73.8668 27.0021L59.6544 56.63L45.6302 9.15367C45.1102 7.39331 43.4936 6.18518 41.6581 6.18518C39.8225 6.18518 38.2059 7.39332 37.6859 9.15367ZM178.288 27.2184V26.7184H177.788H135.797H135.297V27.2184V30.7997V31.2997H135.797H153.96V61.5995V62.0995H154.46H159.126H159.626V61.5995V31.2997H177.788H178.288V30.7997V27.2184ZM226.5 27.2184V26.7184H226H184.009H183.509V27.2184V30.7997V31.2997H184.009H202.172V61.5995V62.0995H202.672H207.337H207.837V61.5995V31.2997H226H226.5V30.7997V27.2184Z" fill="black" stroke="black"/>
<path d="M40.5219 30.0957L37.4749 24.5819L40.7758 10.4912C41.3852 8.69416 43.061 9.8786 43.8228 10.6954L49.9167 30.0957L47.8854 35.8137L43.3149 25.603L40.5219 30.0957Z" fill="black" stroke="black"/>
<path d="M40.5219 26.9417L37.4749 22.5307L40.7758 11.2581C41.3852 9.82046 43.061 10.768 43.8228 11.4215L49.1391 26.9417L47.8854 31.5161L43.3149 23.3475L40.5219 26.9417Z" fill="#8087A9"/>
</svg>
