<svg width="348" height="105" viewBox="0 0 348 105" fill="none" xmlns="http://www.w3.org/2000/svg">
<ellipse cx="81.8437" cy="8.75018" rx="8.78282" ry="8.75018" fill="#BBA367"/>
<path d="M198.953 44.8419V45.3419V73.9788C198.953 77.3636 198.903 80.4515 198.803 83.2423C198.803 83.2429 198.803 83.2435 198.803 83.2441L198.303 83.2262C198.229 86.0103 197.942 88.5086 197.443 90.721L198.953 44.8419ZM198.953 44.8419H198.453H191.23H190.729L190.73 45.3425L190.767 73.9788C190.767 73.979 190.767 73.9792 190.767 73.9795C190.767 77.5567 190.742 80.6356 190.692 83.2164C190.643 85.7572 190.433 87.8863 190.067 89.6105L190.066 89.6171C189.725 91.3356 189.186 92.6786 188.467 93.6719C187.757 94.6527 186.741 95.4197 185.392 95.9621L185.389 95.9632C184.054 96.5094 182.312 96.8874 180.146 97.0837C177.969 97.2562 175.301 97.3429 172.142 97.3429H155.3C152.116 97.3429 149.436 97.2562 147.259 97.0837C145.119 96.8875 143.375 96.5096 142.013 95.9621C140.665 95.4203 139.65 94.6542 138.94 93.6748C138.245 92.6804 137.717 91.3362 137.377 89.6171C137.034 87.8887 136.824 85.7563 136.75 83.2141C136.7 80.6335 136.675 77.5552 136.675 73.9788V45.3419V44.8419H136.175H128.989H128.489V45.3419V73.9788C128.489 77.3631 128.527 80.4501 128.602 83.2396C128.677 86.0477 128.954 88.5774 129.436 90.8258L129.437 90.831C129.947 93.0907 130.74 95.073 131.824 96.7697L131.827 96.7742C132.949 98.4909 134.522 99.9105 136.529 101.038L136.533 101.04C138.541 102.143 141.067 102.953 144.096 103.481C147.154 104.035 150.891 104.309 155.3 104.309H172.142C176.55 104.309 180.274 104.035 183.308 103.481C186.361 102.953 188.9 102.144 190.909 101.04L190.913 101.038C192.921 99.91 194.483 98.4892 195.581 96.7697C196.665 95.0719 197.446 93.0886 197.931 90.828L198.953 44.8419ZM63.0805 20.2149L85.3532 102.746L85.453 103.116H85.836H95.4172H95.7376L95.8715 102.825L122.22 45.5508L122.546 44.8419H121.766H113.382H113.057L112.925 45.1391L90.7389 95.1632L68.859 15.0486C68.1475 12.4435 65.781 10.6366 63.0805 10.6366C60.38 10.6366 58.0135 12.4435 57.302 15.0486L35.4008 95.2412L10.8326 45.1218L10.6953 44.8419H10.3836H2H1.18963L1.55312 45.5661L30.2969 102.84L30.4353 103.116H30.7438H40.325H40.708L40.8077 102.746L63.0805 20.2149ZM273.245 45.3419V44.8419H272.745H208.072H207.572V45.3419V51.3079V51.8079H208.072H236.316V102.616V103.116H236.816H244.002H244.502V102.616V51.8079H272.745H273.245V51.3079V45.3419ZM347.5 45.3419V44.8419H347H282.327H281.827V45.3419V51.3079V51.8079H282.327H310.57V102.616V103.116H311.07H318.256H318.756V102.616V51.8079H347H347.5V51.3079V45.3419Z" fill="black" stroke="black"/>
<path d="M60.1881 50.135L55.4952 40.9499L60.5792 17.4769C61.5177 14.4832 64.0988 16.4563 65.272 17.8171L74.6577 50.135L71.5292 59.6603L64.4899 42.6509L60.1881 50.135Z" fill="black" stroke="black"/>
<path d="M60.1881 44.8809L55.4952 37.5328L60.5792 18.7543C61.5177 16.3594 64.0988 17.9379 65.272 19.0265L73.4601 44.8809L71.5292 52.5011L64.4899 38.8935L60.1881 44.8809Z" fill="#8087A9"/>
</svg>
