<svg width="269" height="75" viewBox="0 0 269 75" fill="none" xmlns="http://www.w3.org/2000/svg">
<ellipse cx="64.4415" cy="6.23755" rx="6.77168" ry="6.23755" fill="#BBA367"/>
<path d="M49.0939 14.8264L66.1588 73.2893L66.2638 73.6492H66.6387H74.026H74.3357L74.4737 73.3719L94.7887 32.5444L95.1483 31.8216H94.3411H87.8772H87.5625L87.4264 32.1054L70.4437 67.5082L53.721 10.8964C53.1153 8.84579 51.2321 7.43848 49.0939 7.43848C46.9558 7.43848 45.0726 8.84578 44.4669 10.8964L27.7232 67.5793L8.90563 32.0874L8.76471 31.8216H8.46387H2H1.15968L1.56057 32.5601L23.7224 73.3877L23.8644 73.6492H24.1619H31.5491H31.9241L32.0291 73.2893L49.0939 14.8264ZM153.968 32.3216V31.8216H153.468H147.899H147.398L147.399 32.3223L147.428 52.7354C147.428 52.7356 147.428 52.7359 147.428 52.7361C147.428 55.2853 147.409 57.4787 147.37 59.3168C147.332 61.1207 147.171 62.6262 146.892 63.8406L146.891 63.8477C146.632 65.055 146.224 65.9885 145.687 66.6744C145.159 67.3497 144.395 67.886 143.367 68.2682L143.365 68.2692C142.347 68.6543 141.012 68.9227 139.347 69.0624C137.671 69.1851 135.617 69.2469 133.182 69.2469H120.197C117.743 69.2469 115.679 69.1851 114.003 69.0624C112.358 68.9228 111.022 68.6545 109.982 68.2682C108.956 67.8866 108.193 67.3513 107.665 66.6774C107.146 65.9906 106.747 65.0559 106.488 63.8477C106.227 62.6288 106.066 61.1199 106.008 59.3146C105.97 57.4767 105.951 55.2838 105.951 52.7354V32.3216V31.8216H105.451H99.9104H99.4104V32.3216V52.7354C99.4104 55.1492 99.4393 57.3515 99.4972 59.3419C99.5556 61.3526 99.7703 63.1673 100.145 64.7829L100.146 64.7885C100.543 66.4166 101.162 67.8478 102.01 69.0742L102.013 69.0787C102.894 70.3241 104.123 71.3477 105.682 72.1576L105.686 72.1597C107.247 72.952 109.204 73.531 111.545 73.9084C113.909 74.3041 116.795 74.4998 120.197 74.4998H133.182C136.584 74.4998 139.46 74.3042 141.805 73.9084C144.164 73.5311 146.132 72.9523 147.692 72.1597L147.697 72.1575C149.256 71.3473 150.478 70.3225 151.34 69.0742C152.188 67.8467 152.798 66.4142 153.176 64.7851C153.57 63.1688 153.794 61.354 153.853 59.344C153.93 57.3524 153.968 55.1494 153.968 52.7354V32.3216ZM211.249 32.3216V31.8216H210.749H160.884H160.384V32.3216V36.5745V37.0745H160.884H182.546V73.1492V73.6492H183.046H188.587H189.087V73.1492V37.0745H210.749H211.249V36.5745V32.3216ZM268.5 32.3216V31.8216H268H218.136H217.636V32.3216V36.5745V37.0745H218.136H239.798V73.1492V73.6492H240.298H245.838H246.338V73.1492V37.0745H268H268.5V36.5745V32.3216Z" fill="black" stroke="black"/>
<path d="M47.7447 35.7385L44.1265 29.1909L48.0462 12.4582C48.7699 10.3242 50.7599 11.7307 51.6645 12.7007L58.901 35.7385L56.4889 42.5286L51.0615 30.4034L47.7447 35.7385Z" fill="black" stroke="black"/>
<path d="M47.7447 31.9932L44.1265 26.7552L48.0462 13.369C48.7699 11.6618 50.7599 12.787 51.6645 13.563L57.9776 31.9932L56.4889 37.4253L51.0615 27.7252L47.7447 31.9932Z" fill="#8087A9"/>
</svg>
