<svg width="269" height="75" viewBox="0 0 269 75" fill="none" xmlns="http://www.w3.org/2000/svg">
<ellipse cx="64.4415" cy="6.23755" rx="6.77168" ry="6.23755" fill="#BBA367"/>
<path d="M49.0939 14.8266L66.1588 73.2895L66.2638 73.6494H66.6387H74.026H74.3357L74.4737 73.3722L94.7887 32.5446L95.1483 31.8218H94.3411H87.8772H87.5625L87.4264 32.1056L70.4437 67.5084L53.721 10.8966C53.1153 8.846 51.2321 7.43869 49.0939 7.43869C46.9558 7.43869 45.0726 8.84599 44.4669 10.8966L27.7232 67.5796L8.90563 32.0876L8.76471 31.8218H8.46387H2H1.15968L1.56057 32.5604L23.7224 73.3879L23.8644 73.6494H24.1619H31.5491H31.9241L32.0291 73.2895L49.0939 14.8266ZM153.968 32.3218V31.8218H153.468H147.899H147.398L147.399 32.3225L147.428 52.7356C147.428 52.7359 147.428 52.7361 147.428 52.7363C147.428 55.2855 147.409 57.4789 147.37 59.317C147.332 61.1209 147.171 62.6264 146.892 63.8408L146.891 63.8479C146.632 65.0552 146.224 65.9887 145.687 66.6746C145.159 67.3499 144.395 67.8863 143.367 68.2684L143.365 68.2694C142.347 68.6545 141.012 68.923 139.347 69.0626C137.671 69.1853 135.617 69.2471 133.182 69.2471H120.197C117.743 69.2471 115.679 69.1853 114.003 69.0626C112.358 68.9231 111.022 68.6547 109.982 68.2684C108.956 67.8868 108.193 67.3515 107.665 66.6776C107.146 65.9908 106.747 65.0561 106.488 63.8479C106.227 62.629 106.066 61.1201 106.008 59.3148C105.97 57.4769 105.951 55.284 105.951 52.7356V32.3218V31.8218H105.451H99.9104H99.4104V32.3218V52.7356C99.4104 55.1495 99.4393 57.3517 99.4972 59.3421C99.5556 61.3528 99.7703 63.1675 100.145 64.7831L100.146 64.7888C100.543 66.4168 101.162 67.8481 102.01 69.0744L102.013 69.079C102.894 70.3243 104.123 71.3479 105.682 72.1578L105.686 72.1599C107.247 72.9523 109.204 73.5312 111.545 73.9086C113.909 74.3043 116.795 74.5 120.197 74.5H133.182C136.584 74.5 139.46 74.3044 141.805 73.9086C144.164 73.5313 146.132 72.9525 147.692 72.1599L147.697 72.1578C149.256 71.3476 150.478 70.3227 151.34 69.0744C152.188 67.8469 152.798 66.4144 153.176 64.7853C153.57 63.169 153.794 61.3542 153.853 59.3442C153.93 57.3526 153.968 55.1496 153.968 52.7356V32.3218ZM211.249 32.3218V31.8218H210.749H160.884H160.384V32.3218V36.5747V37.0747H160.884H182.546V73.1494V73.6494H183.046H188.587H189.087V73.1494V37.0747H210.749H211.249V36.5747V32.3218ZM268.5 32.3218V31.8218H268H218.136H217.636V32.3218V36.5747V37.0747H218.136H239.798V73.1494V73.6494H240.298H245.838H246.338V73.1494V37.0747H268H268.5V36.5747V32.3218Z" fill="black" stroke="black"/>
<path d="M47.7447 35.7386L44.1265 29.191L48.0462 12.4583C48.7699 10.3243 50.7599 11.7308 51.6645 12.7008L58.901 35.7386L56.4889 42.5287L51.0615 30.4035L47.7447 35.7386Z" fill="black" stroke="black"/>
<path d="M47.7447 31.9932L44.1265 26.7552L48.0462 13.369C48.7699 11.6618 50.7599 12.787 51.6645 13.563L57.9776 31.9932L56.4889 37.4253L51.0615 27.7252L47.7447 31.9932Z" fill="#8087A9"/>
</svg>
